<?xml version="1.0"?>
<svg xmlns="http://www.w3.org/2000/svg" xmlns:xlink="http://www.w3.org/1999/xlink" version="1.1" id="Capa_1" x="0px" y="0px" viewBox="0 0 512 512" style="enable-background:new 0 0 512 512;" xml:space="preserve" width="512px" height="512px"><g><g>
	<g>
		<path d="M384,0H128c-23.521,0-42.667,19.135-42.667,42.667v458.667c0,4.135,2.396,7.906,6.146,9.656    c3.729,1.75,8.167,1.177,11.354-1.458L224,408.552l121.167,100.979c1.958,1.625,4.375,2.469,6.833,2.469    c1.542,0,3.083-0.333,4.521-1.01c3.75-1.75,6.146-5.521,6.146-9.656v-224H416c5.896,0,10.667-4.771,10.667-10.667v-224    C426.667,19.135,407.521,0,384,0z M341.333,42.667v435.896l-110.5-92.094C228.854,384.823,226.417,384,224,384    s-4.854,0.823-6.833,2.469l-110.5,92.094V42.667c0-11.76,9.563-21.333,21.333-21.333h219.063    C343.417,27.615,341.333,34.906,341.333,42.667z M405.333,256h-42.667V42.667c0-11.76,9.563-21.333,21.333-21.333    c11.771,0,21.333,9.573,21.333,21.333V256z" data-original="#000000" class="active-path" data-old_color="#000000" fill="#1870CA"/>
	</g>
</g></g> </svg>
